<svg xmlns="http://www.w3.org/2000/svg" xmlns:xlink="http://www.w3.org/1999/xlink" width="500" zoomAndPan="magnify" viewBox="0 0 375 374.999991" height="500" preserveAspectRatio="xMidYMid meet" version="1.0"><path fill="#fbfbfe" d="M 255.71875 49.953125 C 257.78125 53.890625 263.03125 61.765625 267.15625 67.390625 C 275.59375 78.640625 276.15625 80.703125 271.84375 84.265625 C 267.90625 87.828125 253.46875 112.203125 254.78125 113.515625 C 255.34375 114.265625 261.90625 108.265625 269.21875 100.578125 L 282.53125 86.328125 L 297.34375 98.328125 C 312.53125 110.515625 323.21875 117.265625 324.90625 115.390625 C 326.21875 114.078125 315.71875 99.453125 304.84375 87.453125 C 299.78125 81.828125 295.46875 76.390625 295.46875 75.640625 C 295.46875 74.703125 302.40625 67.015625 311.03125 58.390625 L 326.40625 42.828125 L 317.21875 46.765625 C 307.28125 50.890625 299.03125 56.140625 291.53125 63.078125 L 286.46875 67.765625 L 275.21875 58.578125 C 269.03125 53.703125 261.34375 48.078125 257.96875 46.203125 L 252.15625 42.640625 Z M 255.71875 49.953125 " fill-opacity="1" fill-rule="nonzero"/><path fill="#fbfbfe" d="M 95.21875 72.078125 C 85.46875 75.078125 81.71875 78.078125 81.71875 82.390625 C 81.71875 88.578125 86.78125 90.828125 94.46875 88.015625 C 98.21875 86.515625 107.59375 85.015625 115.28125 84.453125 C 130.46875 83.140625 135.34375 79.953125 131.21875 73.390625 C 128.59375 69.265625 106.84375 68.328125 95.21875 72.078125 Z M 95.21875 72.078125 " fill-opacity="1" fill-rule="nonzero"/><path fill="#fbfbfe" d="M 151.46875 71.515625 C 148.65625 74.328125 148.65625 79.203125 151.46875 82.015625 C 155.03125 85.578125 194.96875 85.015625 198.71875 81.265625 C 202.28125 77.890625 202.28125 77.515625 199.84375 72.828125 C 197.96875 69.640625 195.71875 69.265625 175.84375 69.265625 C 161.03125 69.265625 152.96875 70.015625 151.46875 71.515625 Z M 151.46875 71.515625 " fill-opacity="1" fill-rule="nonzero"/><path fill="#fbfbfe" d="M 220.84375 71.515625 C 217.84375 74.515625 218.03125 79.578125 221.21875 82.203125 C 225.53125 85.765625 248.59375 84.078125 251.21875 79.953125 C 252.71875 77.703125 252.71875 75.828125 251.21875 73.390625 C 248.59375 69.265625 224.59375 67.765625 220.84375 71.515625 Z M 220.84375 71.515625 " fill-opacity="1" fill-rule="nonzero"/><path fill="#fbfbfe" d="M 57.34375 103.390625 C 49.46875 116.328125 47.59375 140.890625 54.15625 145.015625 C 60.15625 148.765625 63.71875 144.265625 65.21875 130.765625 C 65.78125 124.015625 67.84375 115.765625 69.53125 112.578125 C 73.84375 103.953125 72.71875 98.515625 66.34375 97.765625 C 62.21875 97.203125 60.34375 98.328125 57.34375 103.390625 Z M 57.34375 103.390625 " fill-opacity="1" fill-rule="nonzero"/><path fill="#fbfbfe" d="M 63.15625 164.328125 C 59.40625 171.265625 75.15625 186.640625 91.84375 192.265625 C 102.90625 196.015625 106.46875 194.890625 105.71875 187.203125 C 105.15625 182.140625 104.03125 180.828125 95.96875 177.828125 C 90.90625 175.953125 83.59375 171.453125 79.84375 167.703125 C 72.53125 160.578125 66.15625 159.265625 63.15625 164.328125 Z M 63.15625 164.328125 " fill-opacity="1" fill-rule="nonzero"/><path fill="#fbfbfe" d="M 127.09375 184.015625 C 125.96875 185.140625 124.84375 187.765625 124.84375 189.453125 C 124.84375 195.640625 129.34375 196.953125 151.09375 196.390625 C 168.90625 195.828125 172.65625 195.265625 174.34375 192.453125 C 175.84375 190.203125 175.84375 188.328125 174.34375 185.890625 C 172.65625 183.265625 168.90625 182.703125 150.90625 182.140625 C 135.71875 181.765625 128.78125 182.328125 127.09375 184.015625 Z M 127.09375 184.015625 " fill-opacity="1" fill-rule="nonzero"/><path fill="#fbfbfe" d="M 196.65625 182.890625 C 195.34375 183.453125 194.21875 186.453125 194.21875 189.453125 C 194.21875 196.390625 197.03125 197.140625 222.15625 196.390625 C 238.28125 196.015625 242.03125 195.265625 243.71875 192.453125 C 245.21875 190.203125 245.21875 188.328125 243.71875 185.890625 C 242.03125 183.265625 238.28125 182.703125 220.28125 182.328125 C 208.46875 182.140625 197.78125 182.515625 196.65625 182.890625 Z M 196.65625 182.890625 " fill-opacity="1" fill-rule="nonzero"/><path fill="#fbfbfe" d="M 261.71875 194.890625 C 259.28125 199.390625 260.59375 201.828125 269.40625 209.515625 C 273.15625 212.703125 278.21875 219.265625 280.65625 223.953125 C 285.53125 233.140625 290.21875 235.953125 294.53125 232.390625 C 299.03125 228.640625 297.71875 222.078125 290.40625 211.015625 C 282.90625 199.953125 272.59375 191.140625 266.96875 191.140625 C 265.28125 191.140625 262.84375 192.828125 261.71875 194.890625 Z M 261.71875 194.890625 " fill-opacity="1" fill-rule="nonzero"/><path fill="#fbfbfe" d="M 283.28125 261.640625 C 280.65625 267.453125 275.59375 275.515625 272.03125 279.453125 C 264.71875 287.703125 264.71875 287.515625 267.34375 292.578125 C 272.03125 301.203125 284.59375 292.953125 293.40625 275.140625 C 299.59375 262.765625 300.53125 256.953125 296.96875 253.390625 C 292.09375 248.515625 287.96875 250.953125 283.28125 261.640625 Z M 283.28125 261.640625 " fill-opacity="1" fill-rule="nonzero"/><path fill="#fbfbfe" d="M 74.59375 279.265625 C 56.96875 289.953125 56.96875 313.578125 74.59375 324.265625 C 86.59375 331.578125 101.96875 327.265625 109.84375 314.515625 C 123.15625 292.578125 96.53125 265.953125 74.59375 279.265625 Z M 74.59375 279.265625 " fill-opacity="1" fill-rule="nonzero"/><path fill="#fbfbfe" d="M 134.78125 295.390625 C 133.46875 295.953125 132.34375 298.953125 132.34375 301.953125 C 132.34375 308.890625 135.15625 309.640625 160.28125 308.890625 C 176.40625 308.515625 180.15625 307.765625 181.84375 304.953125 C 183.34375 302.703125 183.34375 300.828125 181.84375 298.390625 C 180.15625 295.765625 176.40625 295.203125 158.40625 294.828125 C 146.59375 294.640625 135.90625 295.015625 134.78125 295.390625 Z M 134.78125 295.390625 " fill-opacity="1" fill-rule="nonzero"/><path fill="#fbfbfe" d="M 202.09375 296.515625 C 200.96875 297.640625 199.84375 300.078125 199.84375 301.765625 C 199.84375 308.140625 203.96875 309.265625 225.34375 309.265625 C 247.84375 309.265625 251.40625 307.953125 250.09375 299.515625 C 249.53125 295.390625 248.96875 295.203125 227.03125 294.640625 C 211.09375 294.265625 203.78125 294.828125 202.09375 296.515625 Z M 202.09375 296.515625 " fill-opacity="1" fill-rule="nonzero"/></svg>